<svg width="24" height="24" viewBox="0 0 24 24" fill="none" xmlns="http://www.w3.org/2000/svg">
<g clip-path="url(#clip0_118_2)">
<path d="M20.5241 12.6525L17.0491 9.17664H19.0861L19.0277 9.02477C17.8205 5.96932 14.8388 3.80108 11.3483 3.80108C6.79046 3.80108 3.09406 7.49662 3.09406 12.0519C3.09406 16.6132 6.79046 20.3087 11.3483 20.3087C14.7007 20.3087 17.5871 18.4829 18.8776 15.6076L22.1844 15.6411C22.1732 15.6668 19.5829 23.293 11.2934 23.293C5.05638 23.2938 0 18.2366 0 12.0013C0 5.76168 5.05638 0.707016 11.2926 0.707016C16.5094 0.707016 20.8982 4.23867 22.1973 9.04279L22.2247 9.17664H24L20.5241 12.6525Z" fill="white"/>
</g>
<defs>
<clipPath id="clip0_118_2">
<rect width="24" height="24" fill="white"/>
</clipPath>
</defs>
</svg>
